<svg width="83" height="79" viewBox="0 0 83 79" fill="none" xmlns="http://www.w3.org/2000/svg">
<path d="M41.5 52.6666C47.2301 52.6666 51.875 48.2456 51.875 42.7916C51.875 37.3377 47.2301 32.9166 41.5 32.9166C35.7699 32.9166 31.125 37.3377 31.125 42.7916C31.125 48.2456 35.7699 52.6666 41.5 52.6666Z" stroke="black" stroke-width="5.33333" stroke-linecap="round" stroke-linejoin="round"/>
<path d="M10.375 55.3V30.2833C10.375 26.5963 10.375 24.7528 11.1289 23.3445C11.792 22.1058 12.8501 21.0987 14.1516 20.4675C15.6311 19.75 17.568 19.75 21.4417 19.75H25.089C25.5141 19.75 25.7267 19.75 25.9228 19.7286C26.9462 19.617 27.864 19.0771 28.4264 18.2558C28.5342 18.0984 28.6293 17.9174 28.8194 17.5555C29.1997 16.8316 29.3899 16.4697 29.6055 16.1549C30.7304 14.5123 32.566 13.4325 34.6127 13.2094C35.0049 13.1666 35.4299 13.1666 36.2803 13.1666H46.7197C47.5701 13.1666 47.9951 13.1666 48.3873 13.2094C50.4339 13.4325 52.2696 14.5123 53.3946 16.1549C53.61 16.4696 53.8003 16.8317 54.1807 17.5555C54.3705 17.9175 54.4656 18.0984 54.5735 18.2558C55.1362 19.0771 56.0537 19.617 57.077 19.7286C57.2735 19.75 57.4858 19.75 57.9112 19.75H61.5583C65.432 19.75 67.369 19.75 68.8485 20.4675C70.1499 21.0987 71.2081 22.1058 71.8711 23.3445C72.625 24.7528 72.625 26.5963 72.625 30.2833V55.3C72.625 58.987 72.625 60.8306 71.8711 62.2388C71.2081 63.4775 70.1499 64.4847 68.8485 65.1157C67.369 65.8333 65.432 65.8333 61.5583 65.8333H21.4417C17.568 65.8333 15.6311 65.8333 14.1516 65.1157C12.8501 64.4847 11.792 63.4775 11.1289 62.2388C10.375 60.8306 10.375 58.987 10.375 55.3Z" stroke="black" stroke-width="5.33333" stroke-linecap="round" stroke-linejoin="round"/>
</svg>
