<svg width="1440" height="331" viewBox="0 0 1440 331" fill="none" xmlns="http://www.w3.org/2000/svg">
<g filter="url(#filter0_d_3_4)">
<path d="M680.724 307.573C651.468 299.286 627.874 281.005 617.021 258.092C608.056 238.836 606.64 208.123 613.718 179.361C616.549 168.148 620.324 157.423 622.212 155.473C625.987 151.573 626.459 152.792 633.065 174.73C635.66 183.017 637.548 185.698 641.087 185.698C645.098 185.698 646.042 183.748 646.513 173.511C646.985 166.93 645.57 150.842 643.446 137.923C640.851 124.273 639.907 110.867 640.851 105.748C644.154 88.1985 672.231 60.1672 686.623 60.1672C693.229 60.1672 692.993 61.1422 685.915 76.011C674.354 100.142 681.196 104.042 700.307 83.811C719.182 63.336 728.856 28.236 718.946 14.8297C714.228 8.24849 714.699 4.10474 720.126 4.10474C728.384 4.10474 758.584 37.2547 767.549 56.511C774.863 72.111 775.571 75.5235 775.807 96.7297C776.043 127.442 776.279 128.417 780.29 121.105C782.178 117.692 783.593 113.061 783.829 110.867C783.829 108.186 785.717 106.48 788.312 106.48C794.682 106.48 819.928 159.373 826.534 186.673C832.904 212.998 831.96 243.955 824.646 258.823C813.085 281.492 785.245 300.748 753.157 307.817C733.574 311.961 696.532 311.961 680.724 307.573ZM744.192 276.617C750.562 272.961 755.988 267.111 759.763 260.042C764.718 250.292 765.19 246.636 764.482 226.648C764.01 214.217 762.831 203.492 761.887 202.517C760.943 201.542 757.64 203.248 754.573 206.173C751.27 209.342 747.731 211.048 746.315 210.317C742.304 207.636 738.293 181.798 739.709 166.93C741.124 151.573 739.473 149.867 730.035 156.692C725.081 160.105 724.609 160.105 722.249 153.523C719.89 146.698 704.318 128.417 700.779 128.417C699.835 128.417 698.892 135.242 698.892 143.773C698.892 158.155 694.409 174.486 679.073 214.948C674.354 227.623 674.354 251.023 678.837 260.042C689.926 282.223 721.07 290.023 744.192 276.617Z" fill="white"/>
</g>
<defs>
<filter id="filter0_d_3_4" x="-11.7" y="-1.59526" width="1463.4" height="334.191" filterUnits="userSpaceOnUse" color-interpolation-filters="sRGB">
<feFlood flood-opacity="0" result="BackgroundImageFix"/>
<feColorMatrix in="SourceAlpha" type="matrix" values="0 0 0 0 0 0 0 0 0 0 0 0 0 0 0 0 0 0 127 0" result="hardAlpha"/>
<feOffset dy="8"/>
<feGaussianBlur stdDeviation="5.85"/>
<feComposite in2="hardAlpha" operator="out"/>
<feColorMatrix type="matrix" values="0 0 0 0 0 0 0 0 0 0 0 0 0 0 0 0 0 0 0.4 0"/>
<feBlend mode="normal" in2="BackgroundImageFix" result="effect1_dropShadow_3_4"/>
<feBlend mode="normal" in="SourceGraphic" in2="effect1_dropShadow_3_4" result="shape"/>
</filter>
</defs>
</svg>
