<svg width="28" height="32" viewBox="0 0 28 32" fill="none" xmlns="http://www.w3.org/2000/svg">
<path d="M8.79863 31.6535C5.22619 30.7891 2.34518 28.8822 1.01992 26.4923C-0.074864 24.4838 -0.247724 21.2803 0.616578 18.2802C0.962298 17.1107 1.42326 15.992 1.65374 15.7886C2.1147 15.3818 2.17232 15.509 2.979 17.7972C3.29591 18.6616 3.52639 18.9413 3.95854 18.9413C4.44832 18.9413 4.56356 18.7379 4.62118 17.67C4.6788 16.9836 4.50594 15.3056 4.24665 13.9581C3.92973 12.5343 3.81449 11.1359 3.92973 10.602C4.33308 8.77146 7.76147 5.84764 9.51889 5.84764C10.3256 5.84764 10.2968 5.94934 9.43246 7.50023C8.02076 10.0173 8.85625 10.4241 11.1899 8.31382C13.4947 6.17816 14.6759 2.51703 13.4659 1.11868C12.8897 0.432217 12.9473 0 13.6099 0C14.6183 0 18.306 3.45773 19.4007 5.46627C20.2938 7.09344 20.3803 7.44938 20.4091 9.66132C20.4379 12.8648 20.4667 12.9665 20.9565 12.2038C21.187 11.8478 21.3598 11.3648 21.3886 11.1359C21.3886 10.8563 21.6191 10.6783 21.936 10.6783C22.7139 10.6783 25.7966 16.1954 26.6033 19.043C27.3811 21.7888 27.2659 25.0177 26.3728 26.5686C24.9611 28.9331 21.5615 30.9416 17.6433 31.6789C15.2521 32.1112 10.7289 32.1112 8.79863 31.6535ZM16.5485 28.4246C17.3264 28.0432 17.989 27.4331 18.45 26.6957C19.055 25.6788 19.1126 25.2974 19.0262 23.2126C18.9686 21.9159 18.8245 20.7973 18.7093 20.6956C18.5941 20.5939 18.1907 20.7718 17.8162 21.0769C17.4128 21.4074 16.9807 21.5854 16.8078 21.5091C16.3181 21.2295 15.8283 18.5345 16.0012 16.9836C16.174 15.3818 15.9723 15.2039 14.8199 15.9157C14.2149 16.2717 14.1573 16.2717 13.8692 15.5852C13.5811 14.8733 11.6796 12.9665 11.2475 12.9665C11.1322 12.9665 11.017 13.6784 11.017 14.5682C11.017 16.0683 10.4696 17.7717 8.59696 21.9922C8.02076 23.3143 8.02076 25.755 8.56815 26.6957C9.92223 29.0094 13.7252 29.823 16.5485 28.4246Z" fill="#FBEFEF"/>
</svg>
