<svg width="39" height="37" viewBox="0 0 39 37" fill="none" xmlns="http://www.w3.org/2000/svg">
<path d="M3.25 18.4999C3.25 11.2324 3.25 7.59869 5.62976 5.34098C8.00951 3.08325 11.8397 3.08325 19.5 3.08325C27.1603 3.08325 30.9905 3.08325 33.3702 5.34098C35.75 7.59869 35.75 11.2324 35.75 18.4999C35.75 25.7673 35.75 29.4012 33.3702 31.6588C30.9905 33.9166 27.1603 33.9166 19.5 33.9166C11.8397 33.9166 8.00951 33.9166 5.62976 31.6588C3.25 29.4012 3.25 25.7673 3.25 18.4999Z" stroke="#1C274C" stroke-width="4"/>
<path d="M27.625 23.125H23.5625H19.5" stroke="#1C274C" stroke-width="4" stroke-linecap="round"/>
<path d="M11.375 15.4165L11.7559 15.7176C13.8386 17.3642 14.88 18.1875 14.88 19.2707C14.88 20.3538 13.8386 21.1771 11.7559 22.8237L11.375 23.1248" stroke="#1C274C" stroke-width="4" stroke-linecap="round"/>
</svg>
