<svg width="48" height="45" viewBox="0 0 48 45" fill="none" xmlns="http://www.w3.org/2000/svg">
<path d="M13.5 18.625H13.5233M24 18.625H24.0233M34.5 18.625H34.5233M19.1 36.75L22.5067 40.8056C23.0132 41.4088 23.2666 41.7102 23.5772 41.8181C23.849 41.9125 24.151 41.9125 24.4228 41.8181C24.7334 41.7102 24.9868 41.4088 25.4933 40.8056L28.9 36.75C29.5839 35.9356 29.926 35.5285 30.3432 35.2177C30.8994 34.8033 31.556 34.51 32.2612 34.3615C32.7899 34.25 33.3599 34.25 34.5 34.25C37.7615 34.25 39.3923 34.25 40.6789 33.7742C42.3939 33.14 43.7568 31.9231 44.4671 30.3919C45 29.2431 45 27.7871 45 24.875V13C45 9.49967 45 7.7495 44.237 6.41256C43.5659 5.23654 42.4952 4.28042 41.178 3.68121C39.6805 3 37.7205 3 33.8 3H14.2C10.2796 3 8.31944 3 6.82207 3.68121C5.50493 4.28042 4.43407 5.23654 3.76295 6.41256C3 7.7495 3 9.49967 3 13V24.875C3 27.7871 3 29.2431 3.53284 30.3919C4.24329 31.9231 5.60603 33.14 7.32122 33.7742C8.60761 34.25 10.2384 34.25 13.5 34.25C14.64 34.25 15.21 34.25 15.7389 34.3615C16.4439 34.51 17.1006 34.8033 17.6568 35.2177C18.074 35.5285 18.416 35.9356 19.1 36.75ZM14.6667 18.625C14.6667 19.2002 14.1443 19.6667 13.5 19.6667C12.8557 19.6667 12.3333 19.2002 12.3333 18.625C12.3333 18.0498 12.8557 17.5833 13.5 17.5833C14.1443 17.5833 14.6667 18.0498 14.6667 18.625ZM25.1667 18.625C25.1667 19.2002 24.6442 19.6667 24 19.6667C23.3558 19.6667 22.8333 19.2002 22.8333 18.625C22.8333 18.0498 23.3558 17.5833 24 17.5833C24.6442 17.5833 25.1667 18.0498 25.1667 18.625ZM35.6667 18.625C35.6667 19.2002 35.1442 19.6667 34.5 19.6667C33.8558 19.6667 33.3333 19.2002 33.3333 18.625C33.3333 18.0498 33.8558 17.5833 34.5 17.5833C35.1442 17.5833 35.6667 18.0498 35.6667 18.625Z" stroke="black" stroke-width="5.33333" stroke-linecap="round" stroke-linejoin="round"/>
</svg>
