<svg width="46" height="45" viewBox="0 0 46 45" fill="none" xmlns="http://www.w3.org/2000/svg">
<path d="M7.90625 10.6354V12.4818C7.90625 13.0977 8.48988 13.7122 9.20863 13.7122H24.0781C24.7523 13.7122 25.3359 13.1413 25.3359 12.4818V10.6354C25.3359 10.0194 24.7523 9.44849 24.0781 9.44849H9.20863C8.48988 9.44849 7.90625 10.0194 7.90625 10.6354ZM7.90625 17.7974V19.5988C7.90625 20.3019 8.48988 20.8293 9.20863 20.8293H34.0961C34.7702 20.8293 35.3093 20.3019 35.3093 19.5988V17.7974C35.3093 17.1379 34.7702 16.6105 34.0961 16.6105H9.20863C8.48988 16.6105 7.90625 17.1379 7.90625 17.7974ZM7.90625 24.9172V26.7636C7.90625 27.4232 8.48988 27.9941 9.20863 27.9941H26.6383C27.2679 27.9941 27.807 27.4232 27.807 26.7636V24.9172C27.807 24.2577 27.2679 23.6868 26.6383 23.6868H9.20863C8.48988 23.6868 7.90625 24.2577 7.90625 24.9172ZM7.90625 32.4758V34.2772C7.90625 34.9804 8.48988 35.5513 9.20863 35.5513H36.5657C37.2399 35.5513 37.8235 34.9804 37.8235 34.2772V32.4758C37.8235 31.8599 37.2399 31.2454 36.5657 31.2454H9.20863C8.48988 31.2454 7.90625 31.8163 7.90625 32.4758Z" fill="black"/>
</svg>
