<svg width="74" height="67" viewBox="0 0 74 67" fill="none" xmlns="http://www.w3.org/2000/svg">
<path fill-rule="evenodd" clip-rule="evenodd" d="M40.3636 9.13636V0H33.6364V9.13636H23.5455C10.5417 9.13636 0 18.6808 0 30.4545V57.4941C0 62.7441 4.70057 67 10.499 67C13.2835 67 15.954 65.9987 17.9229 64.2156L31.6662 51.7727H42.3338L56.0772 64.2156C58.0461 65.9987 60.7163 67 63.501 67C69.2994 67 74 62.7441 74 57.4941V30.4545C74 18.6808 63.4584 9.13636 50.4545 9.13636H40.3636ZM67.2727 30.4545C67.2727 22.0447 59.7431 15.2273 50.4545 15.2273H23.5455C14.257 15.2273 6.72727 22.0447 6.72727 30.4545V57.4941C6.72727 59.3803 8.41591 60.9091 10.499 60.9091C11.4993 60.9091 12.4586 60.5493 13.166 59.909L28.8793 45.6818H45.1207L60.8338 59.909C61.5415 60.5493 62.5009 60.9091 63.501 60.9091C65.5842 60.9091 67.2727 59.3803 67.2727 57.4941V30.4545ZM13.4545 36.5455V30.4545H20.1818V24.3636H26.9091V30.4545H33.6364V36.5455H26.9091V42.6364H20.1818V36.5455H13.4545ZM50.4545 28.9318C50.4545 31.4547 48.1955 33.5 45.4091 33.5C42.6227 33.5 40.3636 31.4547 40.3636 28.9318C40.3636 26.409 42.6227 24.3636 45.4091 24.3636C48.1955 24.3636 50.4545 26.409 50.4545 28.9318ZM55.5 42.6364C58.2864 42.6364 60.5455 40.591 60.5455 38.0682C60.5455 35.5453 58.2864 33.5 55.5 33.5C52.7136 33.5 50.4545 35.5453 50.4545 38.0682C50.4545 40.591 52.7136 42.6364 55.5 42.6364Z" fill="#080341"/>
</svg>
