<svg width="74" height="67" viewBox="0 0 74 67" fill="none" xmlns="http://www.w3.org/2000/svg">
<path d="M74 53.1098V4.08533H0V53.1097H27.0732V58.0121H20.7561V62.9145H53.2439V58.0121H46.9268V53.1097H74V53.1098ZM41.5121 58.0122H32.4877V53.1098H41.5121V58.0122ZM5.41457 48.2073V8.98784H68.5853V48.2073H5.41457Z" fill="black"/>
<path d="M48.841 19.5107L45.0125 22.9771L51.2201 28.5976L45.0125 34.218L48.841 37.6844L58.8774 28.5976L48.841 19.5107Z" fill="black"/>
<path d="M28.9875 22.9771L25.159 19.5107L15.1226 28.5976L25.159 37.6844L28.9875 34.218L22.7799 28.5976L28.9875 22.9771Z" fill="black"/>
<path d="M37.4629 14.7073L31.0033 42.4878H36.5371L42.9966 14.7073H37.4629Z" fill="black"/>
</svg>
